<?xml version="1.0" standalone="no"?>
<!DOCTYPE svg PUBLIC "-//W3C//DTD SVG 20010904//EN"
 "http://www.w3.org/TR/2001/REC-SVG-20010904/DTD/svg10.dtd">
<svg version="1.0" xmlns="http://www.w3.org/2000/svg"
 width="682.000000pt" height="657.000000pt" viewBox="0 0 682.000000 657.000000"
 preserveAspectRatio="xMidYMid meet">

<g transform="translate(0.000000,657.000000) scale(0.100000,-0.100000)"
fill="#000000" stroke="none">
<path d="M5300 6459 c-30 -10 -67 -18 -82 -18 -16 -1 -31 -9 -37 -20 -12 -22
-90 -51 -138 -51 -19 0 -32 -4 -28 -10 3 -5 -8 -16 -25 -25 -35 -18 -40 -30
-9 -22 12 3 30 1 40 -6 15 -9 22 -7 41 15 26 30 96 52 137 43 25 -5 68 -45
143 -130 32 -37 45 -75 26 -75 -8 0 -33 -9 -56 -20 -22 -11 -45 -20 -50 -20
-14 0 -33 -26 -35 -48 0 -11 -6 -18 -13 -15 -7 2 -27 -3 -44 -12 -18 -9 -46
-15 -61 -13 -23 4 -29 1 -29 -14 0 -11 -11 -23 -25 -28 -33 -13 -32 -24 2 -16
17 5 29 3 34 -6 7 -10 14 -7 31 13 21 24 92 59 120 59 24 0 -29 -42 -138 -111
-65 -41 -111 -76 -107 -82 3 -6 1 -7 -5 -3 -6 4 -23 -1 -37 -10 -14 -9 -28
-14 -32 -11 -11 11 -61 -22 -102 -69 -46 -53 -46 -53 -27 -79 12 -17 19 -17
85 -6 40 6 98 25 129 41 58 30 205 73 368 109 119 27 185 18 221 -28 38 -49
57 -55 100 -32 74 37 80 35 181 -73 84 -90 91 -101 77 -116 -8 -9 -15 -23 -15
-31 0 -26 -96 -93 -136 -96 -43 -2 -51 -8 -36 -26 7 -8 8 -18 4 -22 -4 -5 1
-5 11 -2 24 9 21 0 -4 -14 -15 -8 -19 -8 -15 0 4 6 5 11 1 11 -11 0 -55 -32
-55 -40 0 -6 49 -7 92 -1 8 1 54 74 51 83 -3 7 100 88 112 88 15 0 -18 -30
-62 -55 -58 -34 -50 -44 9 -11 26 15 54 23 66 20 22 -6 67 30 57 46 -3 4 28
30 69 57 41 26 75 55 75 64 1 20 -18 39 -34 33 -18 -7 -177 200 -169 220 3 8
20 18 37 21 18 4 58 21 90 38 44 24 57 37 57 55 0 12 7 25 15 28 16 7 21 49 6
59 -5 3 -35 -6 -65 -19 l-56 -25 -72 25 c-39 13 -74 28 -77 32 -4 4 -19 18
-35 30 l-29 22 31 0 c41 0 91 30 98 58 15 55 -24 142 -63 142 -25 0 -93 -40
-93 -55 0 -8 -4 -15 -9 -15 -4 0 -24 -11 -44 -24 -52 -35 -69 -38 -97 -15 -17
15 -19 19 -7 15 10 -3 36 4 59 15 40 21 40 21 36 70 -6 55 -30 89 -64 89 -33
0 -73 -20 -79 -40 -3 -10 -33 -29 -66 -44 l-61 -26 -61 43 c-52 36 -62 47 -59
69 2 14 0 28 -5 31 -4 2 -33 -4 -63 -14z m38 -11 c-5 -13 -77 -40 -92 -34 -6
2 2 7 19 11 16 5 36 14 43 22 17 16 35 17 30 1z m411 -92 c0 -17 -3 -15 -11 9
-6 17 -13 35 -17 40 -3 6 2 2 12 -8 9 -11 17 -29 16 -41z m-391 13 c30 -23 52
-37 48 -31 -12 19 14 24 41 7 18 -12 22 -20 14 -28 -7 -7 -15 -6 -26 3 -13 11
-15 10 -9 -3 4 -12 -2 -18 -20 -23 -15 -3 -31 -14 -36 -23 -8 -14 -15 -10 -50
26 -35 37 -39 46 -30 64 7 11 9 27 6 35 -8 22 3 17 62 -27z m222 -61 c12 -23
13 -31 2 -45 -7 -10 -18 -30 -24 -45 -7 -15 -26 -33 -43 -40 -16 -6 -33 -13
-37 -16 -5 -2 -8 5 -8 16 0 10 -11 40 -24 65 l-24 45 56 26 c68 30 82 29 102
-6z m379 -4 c6 -14 10 -39 10 -57 l-1 -32 -7 37 c-4 20 -15 48 -24 62 -13 19
-13 24 -3 20 7 -3 18 -16 25 -30z m-128 -39 c-42 -19 -52 -19 -27 0 11 8 29
15 40 15 16 -1 12 -5 -13 -15z m-401 -50 c0 -8 -4 -15 -10 -15 -5 0 -10 7 -10
15 0 8 5 15 10 15 6 0 10 -7 10 -15z m365 -15 c27 -52 20 -68 -40 -97 -41 -21
-55 -33 -55 -49 0 -12 -7 -27 -16 -35 -13 -11 -14 -9 -9 13 8 31 -29 123 -53
134 -13 5 -2 14 43 35 80 37 110 37 130 -1z m-210 -6 c13 -5 14 -8 3 -15 -19
-13 -28 -11 -28 6 0 17 2 18 25 9z m-33 -55 c-4 -62 -10 -65 -47 -28 l-33 34
31 17 c42 23 53 18 49 -23z m327 -18 c11 -7 5 -14 -25 -29 -87 -44 -109 -50
-128 -36 -16 11 -12 16 43 43 34 17 61 36 61 41 0 10 13 5 49 -19z m-554 -1
c-3 -5 -14 -10 -23 -9 -14 0 -13 2 3 9 27 11 27 11 20 0z m305 -19 c7 -13 7
-22 0 -26 -15 -9 -30 4 -30 26 0 25 16 25 30 0z m-336 -9 c-5 -4 -12 -11 -15
-15 -3 -5 -9 -2 -12 5 -3 9 3 14 15 15 11 1 16 -1 12 -5z m605 -6 c-2 -2 -33
-18 -68 -35 -34 -18 -61 -35 -58 -37 3 -3 28 6 56 20 28 14 57 26 66 26 8 0
15 7 15 14 0 12 6 13 33 4 51 -17 58 -31 12 -25 -27 4 -15 -2 35 -18 41 -14
76 -25 78 -25 1 0 2 6 2 14 0 10 7 12 22 8 17 -4 20 -2 15 11 -4 11 3 19 25
26 41 14 48 14 48 -4 0 -18 -16 -20 -23 -2 -3 6 -6 3 -6 -8 -1 -14 -20 -30
-61 -53 l-59 -33 -7 25 c-7 30 -30 37 -64 20 -56 -26 -111 -33 -162 -18 -26 8
-48 19 -48 25 0 11 141 81 149 74 2 -3 2 -7 0 -9z m-319 -102 c8 -9 9 -18 4
-24 -16 -15 -148 -78 -179 -85 -62 -14 -262 -78 -319 -102 -32 -13 -60 -23
-62 -21 -2 3 64 33 147 68 83 36 153 69 156 73 3 5 -2 16 -11 26 -16 17 -16
19 -1 25 9 3 43 6 75 6 32 0 65 3 74 6 9 3 30 31 47 61 l32 55 12 -36 c7 -20
18 -43 25 -52z m158 30 c-10 -10 -28 6 -28 24 0 15 1 15 17 -1 9 -9 14 -19 11
-23z m252 -33 c14 -27 13 -64 -2 -58 -7 2 -12 14 -10 25 2 13 -3 25 -12 28
-20 8 -21 24 -1 24 8 0 19 -9 25 -19z m-750 -11 c0 -5 -4 -10 -8 -10 -5 0 -17
-7 -28 -15 -17 -14 -16 -14 13 0 37 17 53 19 53 5 0 -13 -116 -71 -124 -62 -4
3 3 14 16 24 l23 19 -28 -12 c-18 -8 -26 -18 -22 -28 3 -11 -8 -23 -33 -38
-35 -20 -39 -20 -50 -5 -7 9 -10 12 -7 5 6 -12 -84 -67 -94 -57 -3 4 3 11 13
18 11 6 29 20 40 31 11 11 61 46 111 77 86 55 125 70 125 48z m558 -6 c69 -14
80 -19 70 -31 -21 -25 -52 -36 -95 -34 -48 2 -50 0 -27 -33 12 -20 13 -26 2
-32 -7 -4 -10 -4 -6 1 4 4 -15 33 -43 63 -47 52 -50 57 -33 69 23 17 32 16
132 -3z m219 -6 c-3 -8 -6 -5 -6 6 -1 11 2 17 5 13 3 -3 4 -12 1 -19z m-402
-26 c-25 -13 -34 -32 -15 -32 14 0 12 -37 -2 -47 -7 -4 -56 -8 -108 -9 -66 -1
-127 -10 -199 -28 -57 -15 -105 -25 -107 -23 -2 2 61 23 140 47 79 23 179 61
222 84 48 25 82 37 86 31 4 -5 -4 -16 -17 -23z m340 12 c-36 -28 -53 -35 -60
-24 -4 6 9 17 27 25 43 19 58 18 33 -1z m-265 -56 c33 -37 35 -44 22 -54 -13
-10 -19 -4 -38 36 -12 26 -28 50 -35 53 -12 5 -12 6 0 6 7 1 30 -18 51 -41z
m345 -113 c52 -69 95 -128 95 -132 -1 -5 -25 -24 -54 -44 l-52 -36 -31 24
c-17 13 -69 66 -117 118 l-87 95 18 31 c17 30 108 83 125 73 4 -3 50 -61 103
-129z m-185 120 c0 -2 -10 -9 -22 -15 -22 -11 -22 -10 -4 4 21 17 26 19 26 11z
m-196 -41 c9 -23 7 -44 -4 -44 -13 0 -32 38 -25 50 9 15 22 12 29 -6z m96 -42
c0 -4 -13 -16 -30 -25 -23 -14 -30 -15 -30 -4 0 7 12 18 28 24 15 6 28 11 30
12 1 1 2 -3 2 -7z m-800 -42 c8 -18 20 -30 31 -30 32 0 21 -17 -23 -35 -52
-21 -153 -32 -161 -17 -10 15 33 64 50 57 22 -8 86 34 79 52 -11 28 12 3 24
-27z m-66 18 c-5 -8 -1 -9 12 -5 19 7 19 7 0 -8 -23 -17 -42 -9 -25 11 14 17
23 19 13 2z m1281 -138 c3 -5 1 -10 -4 -10 -6 0 -11 5 -11 10 0 6 2 10 4 10 3
0 8 -4 11 -10z m-149 -105 c10 -40 0 -45 -18 -9 -15 29 -15 34 -3 34 8 0 17
-11 21 -25z m-32 -11 c8 -22 8 -59 -1 -50 -4 4 -8 17 -8 29 0 12 -6 21 -12 20
-7 -2 -13 2 -13 7 0 16 27 11 34 -6z m-156 -129 c-3 -3 -9 2 -12 12 -6 14 -5
15 5 6 7 -7 10 -15 7 -18z"/>
<path d="M3188 6385 c0 -6 -2 -27 -2 -47 -1 -47 -20 -54 -24 -10 -4 37 -24 51
-47 32 -11 -9 -14 -27 -9 -74 6 -75 20 -160 39 -246 8 -36 18 -99 23 -140 l9
-75 2 82 c0 45 -4 129 -11 185 -15 134 -15 150 -2 155 16 6 34 -51 35 -111 1
-59 19 -118 39 -124 10 -4 12 10 7 69 -15 167 -51 351 -59 304z"/>
<path d="M2695 6020 c3 -5 15 -10 26 -10 10 0 19 5 19 10 0 6 -12 10 -26 10
-14 0 -23 -4 -19 -10z"/>
<path d="M2655 5987 c-4 -11 -1 -34 9 -55 9 -21 16 -53 15 -73 -2 -20 3 -50
11 -68 11 -27 11 -47 1 -114 -11 -70 -10 -96 4 -177 35 -205 35 -198 2 -226
-16 -14 -46 -33 -67 -44 -44 -23 -54 -34 -69 -83 -12 -34 -37 -52 -67 -46 -37
7 -89 -31 -231 -169 -76 -73 -94 -109 -48 -98 43 11 30 -24 -38 -103 -15 -18
-36 -50 -45 -70 -19 -42 -80 -111 -99 -111 -7 0 -13 2 -13 5 0 7 51 99 61 110
5 5 9 17 9 28 0 10 5 15 10 12 6 -3 10 -2 10 4 0 5 3 18 6 28 3 10 -17 -6 -45
-36 -87 -93 -206 -366 -240 -551 -5 -30 -15 -82 -21 -115 -7 -36 -10 -133 -8
-240 3 -174 4 -182 31 -238 38 -77 120 -163 198 -210 35 -21 116 -54 179 -74
63 -20 117 -38 119 -40 6 -5 -34 -58 -100 -133 -175 -197 -318 -469 -368 -700
-7 -30 -19 -84 -26 -120 -29 -132 -37 -370 -17 -515 27 -203 78 -371 167 -557
31 -67 40 -78 62 -78 20 0 24 4 18 18 -17 42 -17 79 0 95 24 24 55 22 55 -3 0
-31 25 -74 97 -169 44 -59 61 -90 57 -103 -4 -14 30 -54 145 -169 83 -82 151
-156 151 -163 0 -23 99 -105 143 -118 23 -7 52 -24 67 -39 23 -25 92 -64 180
-102 36 -16 119 -42 225 -72 33 -9 79 -23 101 -30 54 -17 72 -7 55 31 -17 38
-9 41 123 48 61 4 143 12 181 17 39 6 86 9 105 7 30 -3 36 -7 40 -33 l5 -30
130 -3 c123 -2 130 -2 146 19 13 17 29 23 75 26 33 3 71 9 86 15 19 7 37 6 63
-3 32 -12 41 -11 78 7 23 12 68 33 100 48 98 46 150 83 162 117 8 26 20 34 70
52 75 25 140 69 160 107 8 16 25 35 38 41 23 12 132 121 201 203 33 38 42 44
58 35 30 -16 42 -6 92 71 279 430 350 967 194 1450 -42 127 -77 203 -147 319
-111 184 -151 302 -151 447 0 43 -4 74 -10 74 -11 0 -13 -17 -10 -62 3 -49 -9
-68 -41 -68 -40 0 -45 19 -28 104 13 65 13 73 -5 108 -33 67 -80 77 -167 33
-27 -14 -55 -34 -61 -45 -7 -11 -16 -20 -19 -20 -4 0 -36 20 -73 45 -37 24
-96 61 -132 81 -36 20 -63 41 -61 47 2 6 32 25 68 44 76 40 153 118 199 204
25 48 33 76 37 137 12 165 -78 467 -200 677 -160 275 -458 576 -586 591 -20 2
-29 1 -21 -2 22 -10 31 -27 17 -36 -7 -4 -46 -8 -87 -9 l-75 -2 85 -7 c95 -8
166 -32 231 -78 61 -43 155 -129 149 -136 -3 -3 -55 1 -115 9 -61 8 -142 15
-181 15 -66 0 -75 3 -134 41 l-62 40 6 -28 c14 -56 33 -73 76 -69 21 2 40 0
42 -5 2 -5 73 -13 158 -17 134 -8 164 -12 210 -34 109 -50 159 -115 289 -374
123 -246 134 -299 70 -345 -27 -19 -30 -26 -24 -53 4 -17 7 -57 6 -88 -1 -31
2 -66 8 -77 8 -15 7 -20 -5 -25 -9 -3 -20 -4 -25 0 -13 7 -50 -5 -44 -15 2 -5
25 -11 51 -14 65 -7 78 -23 64 -76 -11 -40 -12 -41 -48 -36 -20 2 -82 7 -137
10 -55 3 -179 15 -275 26 -161 18 -200 19 -485 9 -543 -17 -762 -39 -1007
-101 -60 -15 -83 -17 -105 -8 -31 11 -63 37 -63 50 0 18 220 65 522 110 81 13
145 26 142 31 -13 20 -263 1 -351 -27 -32 -10 -41 20 -44 156 l-3 114 80 7
c44 4 145 18 225 32 114 18 138 25 115 31 -48 13 -225 -3 -326 -28 -52 -14
-98 -22 -102 -18 -9 9 -31 229 -24 247 4 11 15 4 41 -25 51 -56 125 -91 194
-91 31 0 74 -5 95 -11 22 -6 72 -15 110 -19 39 -4 101 -19 137 -33 70 -27 85
-25 90 11 3 18 15 28 44 38 22 7 47 22 57 34 9 11 20 20 25 20 4 0 25 16 47
35 21 19 42 32 47 29 12 -7 11 -51 -1 -59 -18 -11 -11 -112 11 -171 33 -86
125 -174 184 -174 8 0 15 -4 15 -9 0 -11 -56 -18 -208 -27 -62 -3 -114 -10
-117 -14 -7 -11 253 -24 338 -16 124 11 157 18 157 31 0 7 19 25 41 41 89 61
142 167 143 280 0 51 -6 70 -38 127 -20 37 -49 75 -64 84 -15 9 -47 29 -71 45
-75 48 -131 47 -235 -3 -22 -10 -48 -19 -58 -19 -10 0 -26 -9 -35 -20 -10 -11
-23 -20 -30 -20 -7 0 -28 -13 -46 -30 -53 -46 -55 -24 -5 50 21 31 48 107 49
135 2 92 -10 179 -30 205 -11 16 -21 35 -21 42 0 25 -37 87 -79 131 -24 25
-77 62 -126 87 -73 38 -97 45 -187 54 -118 14 -104 26 30 26 82 0 105 11 60
30 -34 13 356 12 448 -1 71 -11 78 -10 91 7 24 33 17 39 -117 93 -132 53 -268
81 -402 81 -78 0 -89 3 -117 25 -16 14 -33 35 -36 45 -4 13 -15 20 -30 20 -43
0 -68 69 -67 187 0 29 -4 53 -9 53 -5 0 -9 16 -9 35 0 43 -16 46 -25 5 -6 -27
10 -245 21 -282 7 -23 -20 -84 -43 -96 -10 -5 -42 -12 -71 -16 -30 -4 -90 -18
-134 -32 l-81 -26 -21 21 c-17 17 -20 32 -19 81 1 67 -12 88 -25 38 -5 -19
-16 -34 -26 -36 -16 -3 -18 3 -14 51 2 34 -2 60 -10 70 -9 10 -13 46 -13 104
0 48 -7 123 -15 166 -9 43 -13 81 -10 84 10 11 26 -47 32 -120 4 -45 16 -89
30 -117 l23 -45 0 75 c1 41 -6 100 -15 130 -8 30 -15 77 -14 103 0 45 -1 47
-19 37 -31 -16 -51 -12 -60 13 -8 20 -10 20 -16 4z m1057 -668 c58 -12 108
-30 108 -40 0 -3 -34 -9 -76 -12 -75 -7 -132 6 -148 32 -20 31 25 39 116 20z
m-147 -11 c4 -4 5 -14 2 -23 -5 -13 -31 -15 -165 -15 -87 0 -162 3 -166 8 -4
4 23 15 61 24 68 17 253 21 268 6z m-408 -94 c2 -5 -20 -20 -49 -33 -29 -12
-60 -27 -68 -32 -8 -5 -27 -14 -42 -20 -32 -13 -37 -39 -8 -39 11 0 36 9 56
20 20 12 39 18 42 15 4 -3 0 -10 -8 -14 -42 -24 -100 -79 -107 -101 -4 -14 -7
-97 -6 -185 1 -126 5 -176 21 -235 l20 -75 -24 30 c-35 44 -64 145 -64 226 0
38 -4 69 -10 69 -14 0 -40 -55 -40 -84 0 -37 29 -155 47 -189 17 -33 7 -47
-33 -47 -17 0 -23 8 -28 33 -6 35 -26 256 -26 300 0 38 -16 34 -30 -9 -12 -35
-8 -223 5 -269 10 -34 -18 -58 -84 -71 -34 -7 -85 -24 -114 -38 l-52 -24 40
-1 c21 -1 77 9 123 20 48 13 87 18 92 13 12 -13 32 -199 28 -269 -3 -56 -5
-60 -28 -63 -89 -9 -112 -16 -142 -40 l-33 -27 3 -107 c3 -106 2 -107 -24
-124 -36 -24 -52 -11 -81 66 -64 171 -74 224 -75 410 l-2 175 42 131 42 132
65 26 c36 14 76 26 89 26 39 0 56 25 56 83 0 41 6 62 30 97 16 25 30 52 30 61
0 8 27 35 61 60 33 24 77 56 97 71 23 17 50 28 72 28 19 0 42 5 50 10 19 13
62 9 67 -6z m-692 -192 c-17 -15 -41 -42 -54 -60 -25 -35 -68 -62 -101 -62
-34 0 -23 33 22 65 102 74 195 113 133 57z m765 -79 c0 -29 -41 -73 -68 -73
-53 0 -53 72 0 94 42 18 68 10 68 -21z m-960 -93 c0 -5 -4 -10 -10 -10 -5 0
-10 5 -10 10 0 6 5 10 10 10 6 0 10 -4 10 -10z m1308 -153 c-7 -86 -75 -158
-134 -143 -39 10 -29 40 24 80 27 19 61 54 77 76 15 22 30 40 33 40 2 0 2 -24
0 -53z m151 -105 c-24 -74 -81 -142 -118 -142 -27 0 -27 3 8 53 15 23 45 76
66 117 20 41 42 81 49 89 21 27 18 -47 -5 -117z m-1684 -109 c-65 -159 -109
-337 -125 -503 -10 -101 -14 -118 -36 -140 -21 -21 -26 -23 -34 -10 -32 50 23
355 100 555 35 89 54 115 83 115 14 0 17 -4 12 -17z m2226 -171 c7 -67 6 -76
-18 -123 -32 -61 -73 -94 -133 -108 -60 -14 -60 -14 -60 9 0 16 -7 20 -30 20
-44 0 -37 17 10 25 63 11 134 73 170 149 32 67 36 86 20 86 -11 0 -13 40 -3
66 11 28 34 -37 44 -124z m-116 27 c21 -34 -35 -97 -75 -84 -25 8 -25 21 0 63
20 32 61 44 75 21z m-2246 -609 c9 -48 19 -74 32 -84 20 -13 20 -14 -3 -60
-28 -59 -50 -60 -73 -4 -28 71 -30 128 -6 182 11 26 24 45 29 42 5 -3 14 -37
21 -76z m2557 -199 c73 -30 211 -111 277 -164 l40 -31 -7 -110 c-8 -130 -20
-156 -71 -156 -19 0 -34 -3 -34 -7 3 -21 -4 -31 -40 -51 -51 -29 -62 -28 -97
9 -39 42 -126 107 -201 153 -80 48 -111 46 -136 -7 -27 -54 -46 -62 -237 -92
-50 -7 -65 8 -93 100 -16 52 -31 81 -41 83 -20 4 -20 -6 0 -75 18 -61 15 -70
-14 -52 -27 17 -52 72 -52 113 0 42 6 44 170 56 116 8 132 7 222 -16 99 -25
178 -31 178 -15 0 12 -69 37 -140 51 -30 6 -61 14 -67 18 -7 5 -16 36 -19 69
-6 57 -5 62 17 76 13 8 64 23 113 32 50 9 101 23 115 30 35 19 39 19 117 -14z
m-2442 -10 c10 -11 31 -23 47 -26 16 -4 29 -9 29 -12 0 -15 -39 -32 -73 -33
-29 0 -45 7 -68 29 -35 35 -36 48 -6 54 44 8 54 7 71 -12z m2001 -93 c43 -93
38 -98 -115 -98 -104 0 -234 -20 -292 -44 -21 -9 -45 -16 -54 -16 -33 0 -83
33 -108 70 l-25 38 62 7 c94 10 218 32 357 64 69 16 131 29 138 30 7 0 24 -23
37 -51z m843 -130 c2 -45 0 -57 -14 -62 -24 -9 -35 5 -41 54 -5 35 -2 46 13
57 29 21 39 10 42 -49z m-1858 -8 c0 -5 -23 -38 -51 -72 -71 -89 -98 -159 -65
-171 7 -3 23 -26 36 -51 13 -28 39 -59 66 -78 24 -17 44 -32 44 -34 0 -1 -25
-41 -55 -89 -30 -49 -55 -94 -55 -102 0 -7 -4 -13 -10 -13 -29 0 -86 -172
-105 -322 -13 -98 -14 -139 -5 -221 26 -241 40 -289 115 -415 175 -298 402
-487 680 -567 125 -36 218 -48 370 -48 254 1 468 60 626 175 88 63 229 193
229 211 0 4 -9 7 -20 7 -11 0 -20 -4 -20 -10 0 -5 -9 -14 -20 -20 -17 -9 -27
-4 -69 35 -103 97 -119 220 -44 352 21 37 45 81 53 97 12 24 27 33 80 48 83
23 116 23 163 -2 l37 -20 0 52 c0 29 -5 82 -10 117 -6 35 -9 66 -6 68 2 2 25
-3 52 -12 50 -17 68 -11 62 21 -2 15 -15 20 -53 24 -58 6 -105 34 -105 62 0
62 56 113 118 106 24 -2 35 4 67 42 67 80 95 173 95 315 0 47 4 85 9 85 11 0
88 -134 120 -209 24 -56 24 -86 2 -166 -6 -22 -11 -106 -12 -186 0 -104 -4
-154 -14 -173 -12 -23 -12 -35 0 -84 8 -31 19 -122 24 -202 8 -118 14 -158 36
-215 37 -95 32 -170 -17 -276 -48 -103 -82 -150 -120 -169 -18 -8 -38 -26 -45
-40 -7 -14 -21 -25 -33 -25 -11 0 -41 -17 -67 -37 -27 -20 -66 -43 -88 -51
-77 -27 -109 -37 -112 -33 -2 2 24 31 59 64 70 67 108 122 86 122 -21 0 -129
-91 -156 -130 -13 -19 -32 -38 -43 -42 -17 -6 -24 -26 -16 -44 3 -8 -37 -29
-101 -54 -122 -46 -428 -80 -582 -63 l-75 8 0 77 c0 42 -3 80 -8 84 -17 17
-32 -21 -37 -89 l-5 -72 -35 -3 c-19 -2 -69 1 -110 8 -107 17 -362 80 -380 95
-8 7 -27 15 -42 17 -22 4 -30 -2 -53 -39 -26 -39 -31 -43 -69 -43 -55 1 -188
25 -215 39 -21 12 -30 51 -11 51 26 0 -4 127 -31 132 -28 4 -34 1 -39 -22 -10
-42 -55 -38 -211 21 -76 28 -139 55 -139 59 0 4 23 25 50 46 28 21 50 43 50
50 0 6 11 15 25 18 27 7 32 20 13 32 -6 4 -19 -2 -29 -14 -9 -12 -23 -22 -30
-22 -7 0 -54 -23 -103 -52 -53 -31 -91 -47 -94 -40 -10 32 -46 61 -87 71 -42
11 -45 13 -39 38 7 25 6 26 -29 20 -31 -5 -36 -3 -41 19 -6 21 -47 56 -80 67
-4 1 24 58 63 126 74 130 124 248 165 393 31 107 76 336 76 384 0 24 8 43 25
60 30 30 31 40 5 54 -16 8 -20 21 -20 58 0 66 -25 223 -50 309 -11 40 -20 78
-20 83 0 19 103 60 152 60 l46 0 32 68 c18 37 48 103 67 147 39 89 64 121 108
141 36 16 75 18 75 4z m1850 -144 c0 -60 -8 -72 -34 -53 -26 19 -13 107 15
107 16 0 19 -8 19 -54z m259 15 c10 -6 12 -19 6 -47 -10 -56 -21 -73 -45 -67
-29 8 -31 16 -19 72 11 52 26 62 58 42z m-2769 -44 c0 -4 -46 -58 -92 -108
-36 -40 -53 -37 -31 5 30 57 76 106 101 106 12 0 22 -2 22 -3z m2663 -110 c54
-21 70 -38 46 -52 -5 -4 -19 1 -30 11 -17 16 -22 16 -29 4 -6 -8 -10 -27 -10
-42 0 -26 -3 -28 -44 -28 l-44 0 -18 53 c-9 28 -19 57 -21 64 -11 29 62 24
150 -10z m-335 -49 c-9 -13 -37 -34 -63 -47 -26 -14 -76 -51 -111 -83 -62 -56
-102 -77 -123 -63 -6 3 -11 13 -11 20 0 19 93 88 160 119 30 14 71 37 90 50
19 14 43 25 54 26 17 0 17 -2 4 -22z m-2518 -101 c0 -20 -12 -52 -30 -80 -16
-26 -30 -53 -30 -60 0 -7 -20 -55 -45 -107 -25 -52 -45 -102 -45 -111 0 -8 -4
-19 -9 -25 -15 -15 -48 -135 -71 -249 -11 -58 -20 -108 -20 -111 0 -2 -4 -4
-9 -4 -18 0 -24 95 -12 189 19 158 105 378 214 549 33 52 57 56 57 9z m2170
-201 c0 -15 -97 -94 -149 -120 -38 -20 -63 -20 -36 -1 70 52 110 83 133 107
30 29 52 35 52 14z m-712 -138 c5 -18 29 -102 53 -186 42 -151 44 -179 13
-189 -13 -4 -108 370 -99 395 8 22 24 13 33 -20z m1793 -45 c22 -63 23 -84 24
-275 0 -196 5 -240 24 -209 12 19 31 4 31 -24 0 -15 -9 -29 -22 -36 -14 -8
-18 -14 -10 -17 28 -9 12 -224 -25 -322 -3 -8 -14 17 -24 55 -45 171 -77 623
-51 720 8 29 11 73 8 106 -5 53 -2 69 14 69 4 0 18 -30 31 -67z m-2391 38 c0
-10 -6 -24 -14 -30 -8 -7 -24 -40 -35 -74 l-21 -61 23 -24 c12 -13 43 -40 70
-59 26 -19 47 -41 47 -49 0 -20 -6 -18 -62 16 -26 17 -53 30 -58 30 -6 0 -10
5 -10 10 0 6 -9 10 -19 10 -24 0 -36 18 -33 45 3 21 7 32 36 98 9 21 14 43 10
48 -7 13 34 59 53 59 7 0 13 -8 13 -19z m1085 -11 c-3 -5 -11 -10 -16 -10 -6
0 -7 5 -4 10 3 6 11 10 16 10 6 0 7 -4 4 -10z m352 -321 c61 -11 93 -35 118
-87 11 -23 26 -40 35 -40 58 4 87 -21 76 -66 -8 -33 -133 -217 -171 -253 -19
-17 -44 -34 -55 -38 -11 -3 -20 -12 -20 -19 0 -18 -102 -69 -126 -64 -12 2
-24 19 -33 48 -8 25 -22 68 -31 95 l-16 50 -83 3 c-62 2 -89 -1 -107 -13 -13
-8 -39 -15 -58 -15 -48 0 -101 -54 -110 -112 -8 -48 -30 -78 -58 -78 -22 0
-169 62 -163 69 3 2 30 -2 60 -9 50 -12 58 -12 72 3 19 19 27 15 -167 83 -140
49 -187 78 -176 110 3 11 23 28 44 37 20 9 68 42 105 74 38 32 89 72 114 90
25 18 50 37 54 44 8 14 236 13 327 -1 69 -12 232 -13 249 -2 7 5 16 30 19 58
9 76 11 80 34 59 11 -10 41 -21 67 -26z m-1283 -34 c28 -25 61 -54 74 -65 12
-10 32 -25 45 -31 23 -12 62 -49 51 -49 -3 0 -50 31 -103 70 -53 38 -106 77
-118 85 -13 9 -23 20 -23 25 0 20 25 9 74 -35z m-1244 -154 c0 -16 -8 -37 -17
-47 -16 -16 -18 -15 -25 12 -10 38 -1 64 23 64 14 0 19 -7 19 -29z m1518 -34
c5 -25 -25 -32 -48 -12 -29 26 -25 37 12 33 22 -2 34 -9 36 -21z m-1498 -116
c0 -33 -6 -56 -19 -72 -19 -23 -19 -24 10 -41 16 -10 29 -26 29 -35 0 -38 -58
-108 -75 -91 -8 8 -45 189 -45 219 0 32 41 69 76 69 22 0 24 -4 24 -49z m36
-298 c3 -16 7 -33 9 -39 5 -15 -40 -38 -59 -31 -23 9 -20 47 6 74 28 30 36 29
44 -4z m32 -96 c6 -7 20 -38 32 -70 21 -56 21 -59 4 -78 -26 -29 -41 -23 -68
24 -33 57 -38 80 -27 111 11 28 41 35 59 13z m2544 -34 c12 -11 18 -30 18 -62
0 -41 -4 -49 -33 -68 -18 -13 -38 -23 -44 -23 -6 0 -25 16 -43 37 -27 31 -31
41 -26 72 10 67 77 90 128 44z"/>
<path d="M2740 4200 c-68 -7 -110 -23 -110 -42 0 -23 158 14 175 42 3 5 5 9 3
9 -2 -1 -32 -5 -68 -9z"/>
<path d="M4995 1836 c-35 -46 -80 -166 -62 -166 28 0 113 178 94 196 -3 3 -17
-11 -32 -30z"/>
<path d="M2480 1418 c0 -14 -9 -33 -20 -43 -21 -19 -27 -45 -11 -45 12 0 61
63 61 77 0 6 -7 16 -15 23 -13 10 -15 9 -15 -12z"/>
<path d="M2882 1268 c5 -15 28 -18 29 -3 0 6 -7 12 -17 13 -10 3 -15 -1 -12
-10z"/>
<path d="M2917 1243 c-10 -10 35 -83 64 -104 53 -37 66 -15 24 41 -28 37 -78
74 -88 63z"/>
<path d="M3843 2049 c3 -12 -8 -52 -28 -98 -49 -111 -51 -126 -24 -145 13 -9
36 -16 52 -16 33 0 77 26 77 46 0 8 4 14 9 14 5 0 17 21 27 48 10 26 24 55 32
64 19 23 11 52 -16 56 -12 2 -22 7 -22 12 0 11 -64 40 -90 40 -18 0 -21 -4
-17 -21z"/>
<path d="M4510 1971 c0 -33 39 -94 63 -99 14 -3 17 4 17 42 0 41 -3 48 -32 66
-43 26 -48 25 -48 -9z"/>
<path d="M3234 5844 c-8 -66 0 -162 18 -219 13 -40 13 -40 16 45 4 101 -6 230
-18 230 -5 0 -12 -25 -16 -56z"/>
<path d="M3712 5191 l-34 -6 29 -27 c15 -14 48 -34 73 -44 25 -10 50 -25 57
-33 7 -9 13 -11 13 -5 0 7 -11 22 -25 35 -32 31 -31 45 3 57 l27 10 -28 11
c-30 12 -61 12 -115 2z"/>
<path d="M3845 4733 c10 -122 34 -144 43 -40 4 56 -17 127 -39 127 -8 0 -9
-23 -4 -87z"/>
<path d="M4364 4183 c3 -54 9 -118 12 -142 8 -56 0 -61 -98 -61 -69 0 -78 -2
-78 -19 0 -16 11 -19 103 -24 136 -7 134 -9 117 126 -18 148 -16 152 104 143
l91 -7 -23 23 c-19 20 -35 24 -107 27 -56 2 -88 8 -96 17 -26 32 -32 13 -25
-83z"/>
<path d="M3280 4184 c-35 -30 -60 -73 -60 -105 0 -12 17 -39 39 -60 52 -53 98
-54 147 -5 28 28 34 42 34 76 0 36 -6 48 -39 81 -46 47 -77 50 -121 13z"/>
<path d="M3588 3953 c6 -2 18 -2 25 0 6 3 1 5 -13 5 -14 0 -19 -2 -12 -5z"/>
</g>
</svg>
